<?xml version="1.0" standalone="no"?>
<!DOCTYPE svg PUBLIC "-//W3C//DTD SVG 20010904//EN"
 "http://www.w3.org/TR/2001/REC-SVG-20010904/DTD/svg10.dtd">
<svg version="1.0" xmlns="http://www.w3.org/2000/svg"
 width="627.000000pt" height="627.000000pt" viewBox="0 0 627.000000 627.000000"
 preserveAspectRatio="xMidYMid meet">
<metadata>
Created by potrace 1.11, written by Peter Selinger 2001-2013
</metadata>
<g transform="translate(0.000000,627.000000) scale(0.100000,-0.100000)"
fill="#000000" stroke="none">
<path d="M3203 6172 c-13 -2 -29 -12 -36 -23 -8 -10 -18 -16 -23 -11 -4 4 -3
0 4 -10 15 -18 0 -34 -20 -22 -10 5 -10 4 -1 -6 10 -11 9 -16 -5 -27 -11 -10
-12 -12 -2 -8 8 4 4 -3 -10 -16 -14 -13 -20 -20 -13 -15 8 5 13 4 13 -2 0 -6
-9 -14 -20 -17 -11 -4 -18 -10 -15 -15 3 -5 -1 -15 -9 -23 -8 -8 -12 -18 -8
-22 4 -5 -1 -5 -12 -1 -15 5 -17 2 -13 -14 3 -10 2 -19 -2 -18 -3 1 -16 -2
-29 -6 -20 -7 -21 -10 -10 -24 11 -13 11 -14 0 -8 -8 5 -19 1 -28 -10 -9 -11
-13 -14 -10 -7 4 6 2 14 -4 18 -5 3 -10 1 -10 -4 0 -6 -5 -11 -11 -11 -5 0 -8
4 -5 8 3 5 -5 8 -17 8 -12 -1 -26 -7 -30 -13 -6 -10 -13 -9 -31 2 -21 14 -25
14 -39 1 -8 -8 -17 -12 -21 -9 -3 4 -6 -2 -6 -12 0 -18 -1 -18 -15 1 -11 13
-14 14 -13 4 2 -10 -4 -14 -15 -12 -15 3 -17 0 -9 -15 7 -12 7 -25 1 -36 -8
-13 -6 -17 6 -17 8 0 15 -8 15 -17 0 -16 -2 -16 -11 -3 -9 13 -10 13 -7 0 3
-8 15 -17 29 -21 13 -4 20 -7 16 -8 -12 -1 19 -31 33 -31 6 0 8 -4 5 -10 -6
-9 8 -14 28 -11 5 1 6 -3 2 -9 -3 -6 -12 -7 -18 -3 -7 4 -6 0 2 -10 7 -9 17
-15 21 -12 4 2 5 -7 2 -20 -2 -14 0 -25 7 -25 5 0 9 6 7 13 -1 6 -1 9 1 4 3
-4 8 -5 13 -2 4 3 6 -4 3 -15 -4 -14 0 -20 11 -20 9 0 16 -3 17 -7 0 -5 2 -16
4 -25 2 -11 -2 -15 -13 -12 -10 3 -6 -2 8 -10 21 -13 22 -15 6 -16 -19 0 -19
-1 -1 -20 18 -20 18 -21 1 -14 -14 5 -17 3 -14 -7 3 -8 12 -13 19 -11 8 1 3
-6 -10 -16 -18 -15 -21 -21 -10 -25 10 -4 10 -6 2 -6 -7 -1 -13 -10 -13 -20 0
-11 -6 -22 -12 -24 -8 -4 -7 -6 4 -6 14 -1 15 -6 8 -31 -6 -22 -5 -34 6 -44 8
-8 14 -20 14 -27 0 -9 3 -9 14 0 11 9 16 9 22 0 5 -8 3 -9 -6 -4 -9 5 -11 4
-6 -4 4 -6 13 -8 19 -4 7 5 26 8 42 8 28 1 30 -2 30 -35 0 -19 3 -47 7 -63 4
-16 3 -25 -3 -22 -5 4 -9 1 -9 -5 0 -6 -4 -9 -9 -5 -5 3 -13 0 -17 -6 -4 -8
-3 -9 4 -5 16 10 15 -7 0 -23 -10 -11 -10 -13 0 -7 6 4 12 2 12 -3 0 -6 -5
-11 -11 -11 -6 0 -3 -7 5 -16 20 -20 21 -31 1 -14 -12 10 -13 8 -10 -10 4 -19
2 -20 -12 -8 -12 9 -15 9 -9 1 4 -7 2 -13 -3 -13 -6 0 -11 -5 -11 -11 0 -5 6
-7 13 -3 8 5 8 3 -2 -9 -7 -9 -18 -14 -25 -10 -6 4 -4 -2 4 -12 10 -13 11 -16
2 -11 -9 5 -15 1 -19 -13 -3 -11 -10 -18 -16 -14 -6 4 -8 -2 -5 -15 4 -12 2
-20 -3 -16 -5 3 -9 0 -9 -6 0 -6 -4 -9 -9 -6 -5 4 -7 -7 -5 -23 3 -16 0 -32
-7 -36 -8 -6 -7 -10 2 -17 10 -6 7 -7 -10 -3 -14 4 -21 3 -18 -2 4 -6 0 -19
-8 -29 -8 -10 -14 -23 -15 -29 0 -5 5 -3 10 5 5 8 10 11 10 5 -1 -5 -7 -19
-15 -29 -8 -11 -15 -16 -15 -11 0 5 -11 -2 -25 -15 -14 -13 -25 -30 -25 -37 0
-8 -4 -11 -10 -8 -5 3 -11 1 -11 -4 -1 -6 -2 -15 -3 -20 0 -5 -5 -13 -10 -18
-5 -5 -6 -3 -2 5 11 19 -4 14 -36 -13 -16 -14 -26 -25 -22 -25 4 0 16 8 28 18
20 17 20 17 0 -9 -11 -15 -25 -24 -33 -21 -9 3 -12 1 -7 -6 3 -6 2 -13 -4 -17
-5 -3 -10 0 -10 7 0 10 -2 10 -9 0 -4 -8 -12 -14 -17 -15 -5 -1 -8 -5 -6 -9 1
-5 -2 -8 -8 -8 -5 0 -10 -5 -10 -11 0 -5 6 -7 13 -3 6 4 3 -2 -7 -14 -23 -26
-34 -29 -15 -4 7 9 1 6 -14 -7 -27 -25 -36 -38 -17 -26 6 3 10 1 10 -4 0 -6
-9 -11 -19 -11 -10 0 -22 -7 -25 -16 -4 -9 -2 -13 5 -8 8 4 7 0 0 -15 -10 -17
-9 -21 4 -21 8 0 15 -6 15 -13 0 -18 42 -16 58 3 12 13 13 13 7 0 -4 -8 1 -6
9 4 9 11 16 16 16 10 0 -5 14 6 30 25 17 18 30 28 30 22 0 -7 4 -10 9 -7 12 8
41 -4 41 -16 0 -6 -7 -7 -16 -4 -8 3 -13 2 -10 -3 3 -4 -8 -18 -25 -30 -17
-13 -28 -25 -25 -28 9 -9 -32 -35 -44 -28 -5 3 -14 -4 -21 -16 -8 -15 -13 -18
-19 -10 -5 9 -9 9 -13 -3 -4 -9 -13 -16 -21 -16 -8 0 -18 -9 -21 -20 -4 -11
-11 -18 -16 -15 -5 3 -6 -2 -2 -11 4 -12 3 -15 -5 -10 -7 4 -12 3 -12 -3 0 -5
-9 -8 -19 -6 -15 3 -18 0 -14 -12 5 -13 2 -15 -11 -10 -11 5 -15 3 -10 -5 5
-7 2 -9 -9 -5 -11 4 -14 2 -11 -7 3 -8 0 -17 -7 -22 -8 -5 -10 -3 -5 7 4 8 -2
3 -15 -11 l-22 -25 7 25 c3 14 3 19 0 13 -3 -7 -21 -20 -40 -29 -19 -9 -32
-19 -30 -22 3 -3 12 1 21 8 8 7 15 10 15 7 0 -3 -14 -16 -32 -28 -17 -13 -28
-18 -24 -11 4 7 2 12 -3 12 -6 0 -11 -5 -11 -11 0 -6 -7 -9 -15 -5 -8 3 -14 2
-14 -2 4 -21 -2 -42 -12 -42 -5 0 -7 6 -4 13 4 6 -1 3 -9 -7 -9 -11 -16 -26
-16 -34 0 -7 -4 -11 -9 -7 -6 3 -9 -3 -8 -14 1 -15 4 -17 14 -9 11 8 12 7 7
-7 -5 -13 -4 -16 4 -11 7 4 12 3 12 -3 0 -5 -5 -13 -10 -16 -6 -4 -8 -11 -4
-16 4 -6 11 -6 20 2 13 11 18 6 15 -16 -1 -5 6 -1 14 9 15 20 15 20 16 0 1
-15 3 -14 9 6 4 14 8 20 9 13 1 -7 8 -10 17 -6 8 3 13 12 10 19 -7 18 10 27
30 16 19 -11 64 7 64 26 0 6 5 12 11 12 5 0 7 6 3 13 -5 7 0 6 11 -3 11 -9 16
-10 11 -2 -4 6 -2 12 3 12 6 0 11 -5 11 -11 0 -5 4 -8 9 -4 5 3 17 -5 27 -17
14 -20 16 -20 10 -3 -6 16 -5 18 5 8 15 -15 33 -17 24 -3 -3 6 1 7 9 4 11 -4
16 0 16 12 1 18 2 18 17 -1 14 -18 15 -18 9 -1 -5 14 -2 17 9 12 11 -4 14 -2
9 6 -5 8 -2 9 11 4 15 -5 16 -4 6 8 -11 13 -8 14 18 6 17 -4 35 -11 40 -14 5
-3 12 0 14 6 3 7 6 9 6 3 0 -5 -9 -21 -20 -35 -11 -14 -18 -20 -15 -14 3 6 -1
11 -9 11 -7 0 -12 -8 -10 -19 2 -11 -2 -18 -11 -18 -8 0 -14 -5 -14 -11 0 -6
-7 -8 -16 -5 -15 6 -15 4 -3 -11 13 -15 12 -16 -9 -11 -12 4 -20 2 -17 -2 8
-14 -34 -38 -60 -35 -13 1 -24 -1 -23 -4 3 -14 -15 -40 -23 -35 -8 5 -13 -9
-10 -28 0 -4 -7 -4 -16 -1 -11 4 -14 3 -9 -5 6 -11 -5 -17 -26 -13 -17 2 -7
-10 15 -19 16 -6 17 -9 5 -9 -12 -1 -16 -7 -13 -22 4 -18 2 -19 -12 -7 -14 11
-16 11 -9 -1 7 -10 4 -12 -12 -7 -13 5 -29 -2 -49 -18 -17 -14 -33 -23 -37
-19 -3 3 -6 1 -6 -6 0 -7 -5 -9 -11 -6 -6 4 -17 -1 -25 -11 -9 -11 -13 -14
-11 -9 6 12 -39 12 -50 0 -5 -4 -2 -5 6 0 10 5 12 4 7 -4 -4 -6 -13 -8 -19 -4
-21 13 -59 10 -64 -4 -5 -12 -7 -12 -14 -1 -7 10 -9 8 -10 -7 -1 -11 -1 -24 0
-29 1 -5 -5 -4 -13 4 -13 10 -16 10 -16 0 0 -10 -3 -10 -14 -1 -12 10 -17 8
-26 -10 -7 -13 -8 -19 -2 -15 7 4 9 -2 6 -16 -3 -13 -6 -28 -8 -34 -1 -7 -8
-20 -16 -30 -14 -17 -13 -18 2 -6 10 8 19 9 22 3 3 -5 0 -12 -6 -14 -8 -4 -4
-8 10 -12 26 -8 31 -52 7 -61 -8 -4 -13 -10 -10 -14 3 -4 -2 -13 -9 -19 -11
-9 -16 -9 -23 2 -6 11 -11 10 -25 -5 -20 -20 -10 -25 12 -5 12 10 12 9 1 -5
-7 -10 -20 -18 -28 -18 -8 0 -12 -4 -9 -9 3 -5 -4 -11 -15 -14 -15 -4 -20 -11
-15 -22 3 -9 2 -13 -4 -10 -5 3 -18 1 -27 -5 -17 -11 -17 -11 1 -6 16 6 17 4
6 -9 -7 -9 -15 -13 -18 -10 -3 2 -11 -3 -17 -12 -14 -19 -9 -46 7 -37 6 4 2
-5 -7 -20 -10 -14 -13 -26 -8 -26 5 0 9 -9 10 -20 1 -12 -3 -18 -9 -14 -6 4
-6 -2 1 -15 7 -11 14 -21 17 -21 3 0 2 6 -2 13 -5 8 -2 8 9 -2 9 -7 17 -19 17
-26 0 -8 3 -15 8 -18 4 -2 2 -3 -4 -1 -6 1 -11 -4 -11 -11 0 -8 7 -11 16 -8
11 4 10 1 -3 -9 -10 -8 -29 -13 -42 -10 -14 2 -24 0 -24 -7 0 -7 -6 -9 -12 -5
-7 4 -10 4 -6 -1 4 -4 3 -14 -3 -21 -9 -11 -16 -11 -33 -2 -20 10 -20 10 -6
-7 14 -17 14 -18 -9 -6 -19 11 -22 11 -16 0 6 -8 4 -11 -7 -7 -8 4 -15 0 -15
-8 0 -7 5 -11 11 -8 6 3 3 -1 -6 -9 -10 -8 -15 -17 -11 -20 3 -4 0 -7 -8 -7
-10 -1 -9 -4 4 -11 14 -8 16 -14 6 -25 -9 -11 -8 -14 5 -14 11 0 14 -4 10 -12
-5 -8 0 -7 11 2 11 9 16 10 11 3 -4 -8 -2 -13 4 -13 6 0 8 -5 4 -12 -5 -9 -2
-9 9 1 15 11 17 11 17 -2 0 -8 7 -18 16 -21 13 -5 14 -3 6 7 -8 10 -6 13 8 13
10 0 16 -4 14 -8 -3 -4 0 -8 5 -8 6 0 11 5 11 10 0 6 5 10 11 10 5 0 7 -4 4
-10 -9 -14 8 -12 24 3 9 7 11 7 8 1 -4 -7 0 -15 9 -18 8 -3 12 -2 9 4 -9 14 8
12 24 -2 11 -10 13 -10 7 0 -9 16 6 16 23 0 11 -10 13 -10 7 0 -4 6 -2 12 3
12 6 0 11 -4 11 -10 0 -12 22 -9 32 5 4 6 8 0 8 -12 0 -13 5 -23 11 -23 5 0 8
4 5 8 -2 4 4 8 15 8 10 0 19 -3 19 -6 0 -9 38 -6 46 3 12 12 26 8 18 -5 -5 -9
-2 -9 9 1 13 10 17 10 17 1 0 -9 4 -9 17 1 15 12 16 12 10 -5 -5 -12 -3 -23 5
-28 11 -8 11 -11 0 -15 -10 -4 -9 -9 5 -19 15 -12 15 -13 1 -8 -13 4 -16 0
-14 -20 2 -14 -1 -23 -5 -20 -5 3 -9 -1 -9 -8 0 -10 -2 -10 -8 0 -6 9 -14 6
-29 -12 -12 -13 -18 -28 -15 -32 4 -5 0 -3 -9 4 -13 10 -21 7 -45 -14 -16 -15
-22 -23 -14 -18 13 7 13 5 2 -8 -7 -9 -21 -14 -31 -11 -11 3 -22 -4 -29 -19
-7 -13 -10 -15 -8 -6 3 10 1 20 -4 23 -6 4 -10 1 -10 -4 0 -15 -37 -14 -42 1
-3 7 -11 -2 -18 -19 -10 -21 -17 -28 -22 -20 -5 8 -8 7 -8 -5 0 -12 -5 -15
-17 -11 -10 4 -14 2 -10 -4 3 -5 -1 -10 -9 -10 -9 0 -13 6 -10 14 3 8 1 11 -4
8 -6 -3 -10 -12 -10 -20 0 -9 -8 -12 -22 -10 -12 3 -26 -1 -30 -8 -6 -9 -8 -9
-8 1 0 6 -5 12 -11 12 -5 0 -7 -4 -4 -10 3 -6 -1 -10 -10 -10 -10 0 -13 -5 -9
-12 5 -8 0 -7 -11 2 -10 8 -16 10 -13 5 4 -6 2 -17 -3 -25 -8 -12 -12 -12 -16
-2 -4 10 -8 9 -18 -5 -13 -17 -14 -17 -20 -1 -6 16 -8 16 -27 -2 -13 -11 -17
-23 -12 -32 6 -11 5 -11 -8 0 -12 10 -18 10 -23 2 -4 -7 -22 -10 -40 -8 -28 3
-32 1 -29 -15 2 -15 0 -16 -11 -7 -10 8 -15 8 -21 -1 -4 -8 -3 -9 4 -5 7 4 12
4 12 1 0 -3 -13 -11 -30 -16 -18 -7 -27 -15 -23 -22 4 -7 -2 -5 -12 3 -15 12
-17 12 -10 1 6 -11 4 -13 -8 -8 -12 4 -15 1 -12 -14 3 -14 0 -19 -9 -16 -7 3
-13 -1 -13 -9 0 -7 4 -11 9 -8 10 6 3 -39 -8 -58 -6 -9 -3 -9 9 1 15 12 17 11
17 -4 0 -9 9 -19 19 -22 12 -3 17 -11 14 -19 -3 -8 -9 -12 -13 -9 -4 3 -11 -2
-14 -11 -3 -8 -11 -12 -16 -9 -6 4 -17 1 -25 -5 -8 -6 -20 -8 -26 -4 -8 4 -9
3 -5 -4 4 -7 2 -12 -4 -12 -6 0 -8 -5 -4 -12 5 -8 0 -9 -14 -6 -12 4 -20 2
-17 -2 3 -5 -4 -18 -16 -29 -14 -13 -19 -26 -15 -37 5 -14 4 -15 -9 -4 -13 11
-14 10 -9 -5 5 -13 4 -16 -4 -11 -17 10 -15 0 4 -18 10 -10 11 -16 4 -16 -8 0
-10 -9 -6 -26 4 -16 3 -23 -3 -19 -7 3 -8 0 -5 -9 3 -9 11 -16 18 -16 6 0 4
-5 -4 -10 -13 -8 -13 -13 -2 -31 12 -19 12 -21 -2 -16 -10 4 -13 1 -9 -9 3 -7
9 -14 15 -14 5 0 6 -4 3 -10 -3 -5 -1 -10 5 -10 6 0 9 -4 5 -9 -3 -5 -1 -13 5
-16 8 -5 7 -11 -1 -21 -8 -10 -8 -14 0 -14 6 0 11 -5 11 -11 0 -5 -6 -7 -12
-3 -8 5 -7 0 2 -11 12 -15 12 -17 1 -10 -11 6 -13 3 -8 -14 4 -18 3 -20 -8
-11 -15 13 -16 -5 -1 -29 7 -11 5 -13 -10 -7 -10 4 -15 4 -11 0 4 -4 1 -14 -6
-22 -10 -12 -9 -16 1 -20 10 -3 10 -7 0 -20 -7 -10 -9 -14 -4 -10 10 8 36 -15
36 -32 0 -6 4 -9 9 -6 5 3 11 0 14 -8 3 -7 -7 -23 -24 -35 -16 -12 -27 -26
-24 -32 4 -5 1 -9 -4 -9 -6 0 -11 4 -11 10 0 5 -7 7 -15 4 -8 -4 -12 -10 -9
-15 3 -5 -2 -6 -11 -3 -9 4 -12 11 -8 18 5 7 -1 2 -12 -10 -15 -17 -24 -20
-37 -13 -12 6 -21 4 -32 -7 -9 -8 -16 -11 -16 -6 0 6 -7 12 -14 15 -11 4 -13
1 -9 -11 5 -14 3 -15 -7 -5 -10 10 -19 5 -41 -24 -33 -40 -37 -52 -12 -32 14
13 15 12 7 -6 -6 -11 -9 -30 -8 -43 0 -12 -3 -22 -8 -22 -4 0 -2 -10 7 -23 8
-13 12 -27 8 -32 -5 -4 -2 -5 5 -1 9 5 9 13 1 29 -9 20 -9 21 4 4 8 -10 12
-28 9 -40 -3 -12 -2 -19 2 -15 4 3 18 -3 31 -14 29 -25 22 -52 -11 -45 -13 2
-22 1 -21 -2 1 -3 -2 -6 -7 -6 -5 0 -13 -10 -17 -23 -5 -14 -15 -22 -26 -20
-11 2 -17 -2 -15 -11 3 -12 1 -12 -14 0 -13 10 -16 10 -10 1 9 -14 -36 -62
-58 -62 -19 0 -74 -53 -69 -67 3 -8 -3 -13 -14 -13 -10 0 -14 -3 -8 -8 12 -8
13 -27 3 -38 -11 -10 -10 -26 0 -20 11 7 9 -35 -3 -53 -5 -10 -4 -16 3 -19 7
-2 10 -8 6 -13 -3 -5 -2 -9 3 -8 23 4 35 -2 29 -17 -3 -8 -2 -13 3 -9 5 3 11
0 13 -7 3 -7 9 -8 18 -3 8 5 34 9 57 10 35 1 43 -2 38 -15 -3 -9 1 -8 10 4 8
11 15 15 15 9 0 -6 9 -13 20 -16 11 -3 18 -2 15 3 -3 4 3 14 12 21 12 10 14
10 9 2 -9 -16 -1 -16 25 -2 11 5 17 15 13 22 -4 7 -4 9 1 5 4 -4 15 -2 23 5 9
6 13 7 9 1 -3 -6 0 -11 8 -11 8 0 12 4 9 8 -2 4 0 10 6 14 5 3 10 0 10 -9 0
-15 24 -16 37 -1 5 4 1 5 -7 0 -8 -5 -12 -4 -7 0 14 16 36 14 30 -3 -5 -12 -1
-11 14 4 11 10 18 22 16 26 -2 3 10 12 27 20 16 7 30 17 31 23 0 5 4 1 9 -10
8 -19 9 -19 9 -1 1 15 4 16 16 6 13 -11 14 -10 9 6 -7 19 -7 19 14 0 21 -18
21 -18 17 3 -4 23 10 37 21 20 5 -8 3 -9 -6 -4 -9 5 -11 4 -6 -4 10 -15 29 -3
22 15 -3 7 0 16 6 20 7 5 8 2 3 -6 -6 -10 -1 -12 19 -8 21 4 26 1 26 -14 0
-14 5 -18 16 -14 10 4 13 2 8 -6 -5 -7 0 -9 14 -6 11 3 31 -1 44 -10 21 -15
22 -15 9 1 -15 19 -1 23 17 5 9 -9 12 -8 12 5 0 9 5 17 11 17 5 0 8 -4 5 -9
-10 -15 19 -19 38 -5 11 7 23 11 27 8 5 -3 6 2 3 11 -5 11 -2 14 12 8 11 -4
15 -3 11 4 -4 6 0 13 8 17 8 3 17 0 21 -6 5 -7 2 -8 -6 -3 -9 5 -11 4 -6 -4 4
-6 12 -9 17 -5 5 3 7 9 4 14 -8 13 22 19 34 7 9 -9 11 -8 6 3 -4 11 1 16 15
17 11 1 20 -4 20 -10 0 -7 4 -6 10 3 6 10 10 11 10 3 0 -7 6 -12 13 -10 6 1
11 -4 9 -12 -2 -8 3 -11 12 -8 9 4 18 1 22 -5 5 -7 2 -8 -6 -3 -10 6 -12 1 -7
-24 4 -20 3 -30 -3 -26 -6 3 -7 -1 -4 -9 3 -9 11 -16 17 -16 6 0 2 -7 -9 -15
-16 -13 -16 -14 -1 -9 13 5 16 2 11 -10 -3 -9 -11 -13 -18 -10 -6 3 -3 -1 7
-9 9 -8 17 -23 17 -33 0 -16 2 -17 10 -4 8 13 10 12 10 -2 0 -10 6 -18 13 -18
9 0 9 -2 1 -8 -8 -5 -4 -13 11 -24 22 -17 23 -17 18 5 -4 19 -3 20 7 5 14 -23
31 -23 24 0 -2 9 1 7 7 -5 11 -21 13 -22 25 -5 8 10 13 12 14 5 0 -7 5 -13 11
-13 5 0 7 6 3 13 -4 6 3 3 15 -7 21 -19 22 -19 15 -1 -6 15 -4 17 12 10 10 -4
30 -7 43 -6 13 0 30 -4 38 -10 11 -10 12 -8 7 6 -5 13 -4 16 4 11 7 -4 22 0
34 8 12 9 18 16 13 16 -6 0 3 9 20 20 23 15 32 17 44 7 12 -10 13 -9 6 2 -6
11 -3 13 13 9 15 -4 23 0 27 13 4 11 11 17 16 14 5 -4 9 -1 9 5 0 7 7 9 16 6
8 -3 12 -2 9 4 -6 9 8 14 28 11 5 -1 6 3 2 9 -3 5 -1 10 5 10 6 0 8 4 5 10 -3
5 0 7 8 4 8 -3 23 6 35 21 11 14 22 21 24 17 1 -5 12 0 23 11 11 11 13 16 5
12 -13 -8 -13 -6 -2 7 7 9 24 15 38 13 13 -1 27 2 31 8 4 6 1 7 -7 2 -9 -5
-11 -4 -6 4 6 9 11 9 21 1 10 -8 15 -8 21 1 5 8 3 9 -6 4 -9 -6 -11 -4 -6 4 6
9 13 8 29 -6 11 -10 18 -13 14 -7 -3 6 0 11 8 11 8 0 12 -4 9 -9 -3 -4 3 -8
13 -8 15 0 16 -2 3 -10 -12 -8 -12 -10 -1 -10 11 0 11 -3 0 -17 -9 -11 -10
-14 -2 -9 9 5 11 2 7 -8 -3 -9 -11 -13 -17 -9 -6 4 -7 1 -3 -6 5 -7 15 -10 25
-7 12 5 11 2 -3 -9 -12 -9 -15 -15 -7 -15 8 0 11 -6 7 -16 -4 -11 1 -18 14
-21 11 -3 17 -9 14 -14 -3 -5 2 -9 11 -9 9 0 13 -5 9 -11 -4 -8 0 -8 15 0 14
8 21 8 21 1 0 -5 5 -10 11 -10 11 0 45 -30 42 -38 -1 -3 -7 -9 -15 -13 -10 -6
-8 -9 7 -9 17 0 17 -2 5 -10 -13 -9 -13 -10 0 -10 13 0 13 -1 0 -10 -12 -8
-12 -10 -1 -10 11 0 11 -3 1 -15 -7 -9 -8 -15 -2 -15 15 0 9 -34 -8 -42 -11
-5 -10 -7 5 -7 17 -1 17 -3 5 -11 -12 -8 -12 -10 -1 -10 10 0 11 -3 2 -14 -10
-11 -8 -17 6 -26 16 -10 16 -11 1 -6 -19 6 -25 -9 -8 -19 7 -4 7 -12 0 -25 -8
-15 -6 -22 7 -30 17 -11 17 -11 1 -6 -19 6 -25 -9 -8 -19 7 -4 7 -13 0 -26 -6
-10 -7 -19 -2 -19 5 0 9 -7 9 -15 0 -9 -6 -14 -13 -11 -8 3 -11 0 -7 -10 3 -7
9 -14 14 -14 5 0 9 -5 9 -11 0 -5 -4 -8 -9 -4 -10 5 -6 -33 3 -43 3 -2 1 -13
-5 -23 -6 -13 -6 -19 1 -19 5 0 10 -5 10 -11 0 -5 -6 -7 -12 -3 -8 5 -7 0 2
-11 11 -14 11 -17 1 -11 -10 7 -12 3 -6 -13 4 -13 1 -29 -7 -38 -7 -9 -8 -14
-2 -10 7 4 18 -1 25 -10 10 -12 10 -14 2 -9 -14 8 -18 -6 -6 -18 5 -4 8 -13 8
-19 0 -7 15 -12 38 -11 20 0 37 -3 37 -8 0 -5 5 -6 11 -2 19 11 109 11 109 0
0 -7 3 -8 8 -1 10 14 32 17 32 4 0 -5 5 -7 11 -3 17 10 109 12 109 2 0 -5 5
-6 11 -2 16 10 269 11 269 1 0 -5 6 -5 12 -1 7 5 39 7 70 7 32 -1 61 3 64 9 5
7 2 8 -7 3 -10 -6 -9 -3 2 11 23 28 34 48 22 41 -6 -4 -10 4 -10 18 0 14 3 23
7 20 4 -2 5 7 2 21 -3 19 -7 22 -13 12 -6 -9 -9 -9 -9 -1 0 6 4 15 10 18 5 3
9 21 8 40 -1 22 -5 32 -12 28 -6 -4 -5 1 3 10 7 9 10 17 6 17 -4 0 -2 6 4 14
9 11 9 16 0 22 -8 5 -9 3 -4 -6 6 -9 4 -11 -4 -5 -9 5 -10 10 -2 18 13 13 15
31 3 23 -5 -3 -9 1 -9 9 0 8 4 12 8 10 3 -3 9 4 12 14 4 15 1 18 -12 13 -14
-5 -14 -4 -2 11 11 14 11 17 0 17 -8 0 -6 6 7 16 10 8 13 13 7 9 -12 -6 -19
15 -13 40 1 6 2 20 2 32 0 13 4 20 9 17 5 -3 6 2 3 10 -3 9 -11 13 -18 9 -6
-3 -6 -1 2 8 13 14 17 33 4 25 -4 -2 -8 4 -8 14 0 15 3 17 15 7 12 -10 13 -9
5 8 -6 11 -9 30 -8 43 0 12 -2 25 -7 28 -4 2 -6 11 -3 19 4 8 10 13 14 10 5
-3 12 0 16 6 4 7 3 9 -4 5 -6 -3 -13 -2 -16 3 -3 5 2 12 11 15 11 5 14 10 7
14 -7 5 -4 14 9 27 11 11 17 14 13 8 -5 -9 -2 -11 8 -7 11 4 16 0 16 -14 0
-12 9 -23 20 -27 22 -7 26 -20 8 -31 -6 -4 -8 -3 -4 4 3 6 2 13 -3 16 -5 4 -8
-2 -7 -11 2 -9 8 -19 14 -21 7 -2 12 -13 12 -24 0 -13 5 -18 14 -15 11 4 13 1
9 -10 -5 -12 -3 -14 8 -8 12 8 12 6 0 -8 -11 -15 -11 -17 2 -17 11 0 13 -6 9
-22 -3 -14 -1 -19 6 -14 8 5 10 1 5 -10 -5 -13 -3 -16 9 -11 12 4 15 0 13 -18
-1 -17 4 -26 18 -31 16 -5 17 -8 6 -16 -10 -7 -8 -8 9 -5 12 3 20 2 18 -2 -3
-4 4 -13 14 -21 10 -8 17 -17 14 -22 -5 -7 10 -12 29 -9 5 1 6 -3 2 -9 -3 -5
-1 -10 4 -10 6 0 11 -6 11 -14 0 -8 5 -18 12 -22 7 -4 8 -3 4 5 -6 8 -1 8 18
0 14 -7 23 -16 20 -20 -3 -5 6 -9 20 -9 14 0 27 -4 27 -10 1 -5 2 -14 3 -19 0
-5 4 -13 8 -17 4 -3 6 3 3 15 -3 18 -1 20 16 11 10 -6 19 -7 19 -3 0 4 5 1 10
-7 7 -11 10 -11 10 -2 0 10 5 10 20 2 18 -10 24 -7 21 12 0 4 6 5 14 2 8 -4
12 -11 8 -18 -4 -6 1 -5 10 3 11 9 17 10 17 2 0 -6 5 -11 11 -11 6 0 9 7 6 14
-4 10 -1 13 9 9 7 -3 14 -10 15 -17 0 -6 4 -2 8 9 5 11 14 20 22 20 9 0 13 9
11 25 -1 13 3 27 10 32 9 5 5 8 -12 9 -23 0 -23 1 -5 9 11 5 15 9 8 9 -7 1
-10 8 -6 18 5 12 2 15 -9 11 -8 -4 -15 -1 -15 8 0 7 5 10 10 7 6 -3 7 -1 3 5
-4 7 -14 12 -21 12 -12 0 -12 6 -4 26 5 15 7 29 4 32 -3 3 -5 0 -5 -6 0 -7 -5
-12 -11 -12 -8 0 -8 5 1 15 17 20 30 19 30 -2 0 -15 2 -14 15 3 11 14 14 15 9
3 -3 -10 3 -23 15 -31 12 -8 18 -18 13 -23 -4 -4 4 -5 18 -2 24 6 24 5 6 -8
-19 -15 -19 -15 3 -15 12 0 19 -4 16 -10 -3 -5 -1 -18 5 -27 11 -17 11 -17 6
0 -3 9 -3 17 -1 17 10 0 55 -48 55 -59 0 -7 10 -9 28 -5 15 4 24 3 20 -1 -5
-5 6 -16 22 -26 17 -11 30 -27 30 -36 0 -14 2 -15 9 -5 11 19 24 17 32 -5 7
-17 8 -17 9 2 1 19 2 19 10 -2 6 -15 15 -20 29 -16 12 3 18 10 14 16 -3 6 -1
7 6 3 6 -4 9 -11 6 -16 -3 -4 4 -10 16 -13 15 -4 18 -2 10 7 -7 8 -4 12 10 12
10 0 19 -4 19 -9 0 -5 7 -4 15 3 12 10 15 10 15 -1 0 -11 2 -11 10 1 6 10 10
11 10 3 0 -7 5 -13 11 -13 5 0 7 5 3 12 -5 7 -2 9 9 5 12 -4 14 -2 10 10 -4
11 -2 14 5 9 7 -4 12 -1 13 6 0 7 4 4 9 -7 7 -19 8 -19 15 -2 6 14 10 15 21 6
12 -10 13 -8 8 6 -5 12 -4 16 4 11 7 -4 10 1 7 13 -3 15 0 18 12 14 11 -4 14
-2 9 5 -4 7 -2 12 5 12 7 0 4 7 -7 15 -13 10 -14 13 -3 10 10 -4 16 0 16 9 0
8 -4 13 -9 10 -4 -3 -8 -1 -8 4 0 6 7 13 16 16 11 4 13 10 6 19 -5 6 -12 25
-14 40 -4 22 -2 27 9 23 9 -4 17 1 20 14 4 13 14 20 30 20 13 0 35 11 49 25
22 22 24 28 12 42 -12 15 -11 15 12 3 14 -7 22 -9 18 -5 -4 5 -2 15 5 24 10
14 10 14 -4 3 -14 -10 -18 -10 -23 3 -3 9 -2 13 4 10 6 -3 10 3 10 14 0 12 -6
21 -12 21 -9 0 -8 4 2 10 13 9 13 11 0 20 -13 9 -13 10 0 11 9 0 7 4 -7 11
-13 6 -23 17 -23 25 0 9 -5 11 -12 7 -10 -6 -10 -4 0 8 11 14 10 18 -5 27 -17
10 -17 10 2 11 11 1 15 4 9 6 -7 3 -2 16 14 34 25 28 25 28 41 8 15 -18 86
-34 75 -17 -2 4 0 10 6 14 5 3 10 1 10 -4 0 -6 7 -11 15 -11 8 0 15 6 15 13 0
8 3 8 8 2 8 -13 22 -13 41 -1 10 6 12 5 7 -2 -4 -7 -4 -12 1 -13 50 -5 61 -4
53 6 -6 7 -2 11 10 11 10 0 16 -4 14 -8 -3 -4 0 -8 5 -8 6 0 11 5 11 10 0 6 9
10 21 10 11 0 18 4 15 8 -6 10 25 9 42 -1 8 -6 10 -3 5 9 -5 13 -3 16 10 11
12 -4 14 -2 10 10 -4 11 -2 14 5 9 11 -6 16 5 13 26 0 4 7 4 16 1 9 -4 14 -2
11 3 -4 5 1 18 9 29 15 19 15 19 9 -5 -6 -25 -6 -25 5 -3 7 13 16 23 21 23 4
0 8 29 8 65 0 49 -3 63 -13 59 -7 -2 -22 6 -33 18 l-19 23 23 -19 c12 -11 22
-15 22 -10 0 5 -12 17 -26 28 -22 15 -28 16 -36 5 -6 -10 -7 -6 -2 11 6 21 5
23 -8 13 -11 -10 -17 -10 -28 0 -10 9 -11 9 -6 -1 4 -7 2 -12 -6 -12 -15 1
-57 30 -42 30 6 0 16 -6 24 -12 12 -11 12 -10 1 5 -7 9 -22 17 -31 17 -10 0
-20 6 -23 13 -3 9 -9 9 -26 -1 -18 -10 -22 -10 -27 3 -7 18 -25 20 -20 3 1 -7
1 -10 -1 -5 -3 4 -8 5 -13 2 -4 -2 -7 6 -7 20 0 15 4 22 10 18 7 -4 8 0 3 12
-6 16 -4 16 11 4 9 -8 14 -9 10 -2 -4 6 0 18 9 27 8 9 12 21 8 28 -6 10 -5 10
7 1 12 -10 15 -8 15 8 0 10 -4 19 -8 19 -4 0 -8 5 -8 11 0 5 6 7 13 3 7 -5 6
0 -3 11 -9 11 -10 16 -2 11 6 -4 12 -2 12 3 0 6 -5 11 -11 11 -8 0 -8 4 0 14
8 10 8 16 -2 25 -8 6 -18 7 -23 3 -4 -4 -2 1 5 11 12 15 12 17 -3 11 -12 -5
-19 0 -23 15 -3 11 -9 18 -14 15 -5 -3 -9 2 -9 10 0 9 -5 16 -11 16 -5 0 -7
-5 -3 -11 5 -8 1 -8 -13 0 -11 6 -24 7 -28 3 -5 -4 -5 -2 -2 4 4 7 -2 23 -14
35 -11 13 -18 19 -15 12 4 -6 2 -14 -4 -18 -5 -3 -10 2 -10 12 0 15 -2 16 -10
3 -8 -12 -10 -12 -11 5 l0 20 -9 -20 c-5 -11 -9 -14 -9 -7 -1 7 -4 11 -8 9
-11 -7 -33 19 -25 29 4 4 0 5 -9 2 -9 -4 -20 2 -27 13 -7 10 -17 19 -24 19 -7
0 -3 -7 8 -15 13 -11 9 -10 -17 2 -32 16 -34 19 -20 31 11 9 12 12 2 10 -7 -2
-15 2 -18 9 -4 12 14 12 34 0 6 -4 15 -2 19 4 5 8 3 9 -6 4 -8 -5 -11 -4 -7 2
4 6 18 8 33 5 19 -3 22 -7 12 -13 -8 -5 -8 -9 -2 -9 16 0 35 25 26 35 -4 5 -1
5 6 1 7 -4 10 -11 7 -16 -3 -5 11 -7 30 -5 27 4 34 2 29 -7 -6 -10 -5 -10 8
-1 8 7 18 10 22 6 10 -11 37 -12 30 -2 -3 5 -10 6 -16 3 -6 -4 -8 -2 -5 4 4 5
16 8 27 5 11 -3 17 -10 14 -15 -4 -5 8 -2 25 6 17 9 31 24 31 32 0 9 6 14 13
11 8 -3 12 9 13 38 1 36 -1 42 -19 41 -11 -1 -22 6 -24 14 -4 13 -3 13 6 0 9
-13 11 -13 11 3 0 16 -12 22 -34 18 -5 -1 -6 5 -2 14 3 9 2 13 -3 10 -10 -6
-24 11 -27 33 -2 7 4 16 12 19 16 6 20 73 3 73 -5 0 -7 -5 -3 -12 4 -7 3 -8
-4 -4 -6 4 -9 13 -5 21 3 10 -1 15 -12 15 -10 0 -13 4 -9 13 6 9 4 9 -8 -1
-13 -10 -18 -10 -24 -1 -4 7 -3 9 3 6 5 -3 10 0 10 7 0 7 -6 13 -13 13 -7 0
-11 -4 -8 -9 8 -12 -40 -10 -53 3 -9 9 -11 6 -7 -12 4 -15 3 -20 -3 -12 -5 7
-24 13 -43 15 -19 1 -38 6 -42 12 -10 15 3 35 19 29 11 -4 14 -2 9 5 -3 6 4
20 16 32 14 13 17 20 8 18 -8 -2 -14 4 -15 12 0 8 -15 21 -32 29 -18 8 -33 21
-33 28 0 7 -9 13 -20 13 -11 0 -20 7 -20 15 0 8 -5 15 -11 15 -5 0 -7 4 -4 10
4 6 -1 7 -11 3 -12 -4 -15 -3 -10 5 4 7 2 12 -3 12 -6 0 -11 -5 -11 -11 0 -6
-7 -4 -15 5 -8 8 -15 21 -15 29 0 11 -11 15 -37 15 -21 0 -39 5 -41 11 -2 6
-8 11 -13 11 -6 0 -7 -5 -4 -11 4 -6 -2 -5 -13 2 -12 7 -19 16 -16 20 2 4 -6
11 -18 15 l-21 6 24 13 c13 8 28 10 34 5 5 -4 18 -6 27 -5 10 2 20 -1 23 -6 3
-5 14 -3 25 3 15 10 17 15 7 28 -6 8 -8 12 -3 8 14 -12 41 23 42 54 1 20 -3
28 -12 24 -9 -3 -11 0 -7 11 4 10 2 14 -4 10 -12 -8 -12 11 0 31 5 8 2 12 -8
12 -9 0 -13 5 -10 10 3 6 -1 10 -9 10 -8 0 -18 5 -22 12 -4 7 -3 8 4 4 7 -4
10 -2 6 7 -3 8 -19 13 -41 12 -20 0 -42 5 -49 13 -11 11 -14 11 -15 0 0 -7 -4
-4 -9 7 -5 12 -9 14 -9 6 -1 -12 -4 -11 -14 3 -7 9 -22 18 -34 19 -13 0 -25 7
-28 15 -2 7 -1 11 4 7 17 -10 18 20 2 45 -12 19 -13 22 -2 15 11 -6 13 -4 8 8
-4 12 -2 14 10 10 11 -4 14 -2 9 5 -4 7 -1 12 8 12 8 0 18 5 22 12 4 6 3 8 -3
5 -6 -4 -13 2 -16 13 -3 11 -1 18 4 14 5 -3 9 0 9 5 0 10 -7 13 -26 10 -4 0
-11 5 -15 13 -11 16 -12 57 -1 43 10 -13 32 -17 32 -6 0 10 32 7 52 -5 7 -5 9
-2 6 7 -4 10 1 15 12 15 11 0 16 -6 13 -16 -3 -10 -1 -9 7 3 6 9 16 14 22 11
7 -5 8 -2 3 6 -6 10 -4 12 9 7 14 -6 15 -4 5 16 -11 20 -11 21 5 8 9 -8 19
-11 23 -7 3 3 0 6 -7 6 -7 0 -11 3 -7 6 3 3 2 17 -4 31 -7 18 -6 23 4 18 6 -4
3 1 -8 10 -11 9 -19 19 -18 23 1 4 -1 9 -4 12 -4 3 -3 0 1 -7 4 -8 -1 -11 -14
-10 -11 1 -20 6 -20 12 0 6 -14 24 -32 41 -17 16 -28 23 -24 17 5 -9 0 -13
-14 -13 -14 0 -19 -4 -14 -12 9 -15 -24 9 -44 32 -12 13 -13 13 -8 -2 8 -28
-2 -21 -24 15 -19 31 -20 31 -20 7 -1 -21 -2 -22 -10 -8 -6 10 -19 15 -30 13
-11 -2 -18 0 -15 6 4 5 -1 10 -9 10 -30 3 -34 4 -43 13 -5 5 -2 6 6 1 9 -5 12
-4 7 3 -4 7 -14 12 -22 12 -8 0 -13 4 -10 9 3 5 -1 11 -9 15 -8 3 -17 1 -21
-5 -4 -6 -11 -6 -20 2 -7 6 -11 15 -8 20 3 5 -5 9 -18 9 -13 0 -31 7 -41 15
-11 7 -28 12 -38 10 -12 -2 -17 0 -13 6 4 7 -3 9 -16 7 -18 -2 -24 2 -25 19
-1 12 2 20 6 18 4 -3 9 1 12 9 4 9 14 12 28 9 17 -5 20 -3 14 8 -7 12 -6 12 7
1 8 -7 23 -10 32 -6 9 4 16 1 16 -6 0 -9 8 -6 22 6 16 13 19 14 10 2 -10 -12
-10 -18 -1 -24 8 -4 9 -3 5 5 -4 6 0 14 8 17 9 3 14 10 11 14 -3 4 2 13 10 20
12 10 13 16 3 28 -8 10 -9 13 -2 9 8 -4 11 2 10 17 0 13 -3 23 -5 21 -2 -2
-10 3 -18 11 -8 8 -19 12 -24 9 -5 -4 -9 -1 -9 4 0 6 -5 11 -11 11 -5 0 -7 -5
-3 -12 4 -7 3 -8 -4 -4 -6 4 -9 13 -5 21 5 14 -7 20 -30 16 -5 -1 -7 2 -5 6 5
8 -44 59 -52 55 -3 -1 -5 4 -5 11 0 6 -8 11 -16 11 -11 -1 -15 5 -12 17 3 11
0 19 -6 19 -7 0 -9 5 -5 13 5 8 2 8 -9 -2 -14 -11 -17 -11 -18 0 -1 8 -1 18 0
23 1 5 -5 6 -13 3 -9 -4 -15 -1 -13 6 1 7 -10 13 -25 15 -25 3 -33 14 -30 43
1 3 -12 3 -29 1 -18 -3 -29 0 -29 7 0 7 5 9 10 6 16 -10 11 1 -7 16 -11 10
-14 10 -9 2 4 -7 3 -13 -2 -13 -6 0 -13 7 -16 16 -3 8 -11 12 -17 8 -7 -4 -9
-3 -5 4 3 5 0 13 -6 15 -10 4 -10 8 1 15 8 6 10 15 5 23 -5 9 3 7 20 -5 25
-16 28 -16 23 -2 -8 20 -3 20 17 0 15 -14 16 -14 16 2 0 14 3 14 16 4 12 -11
15 -11 12 1 -2 8 -7 17 -13 21 -6 5 -5 8 3 8 7 0 10 4 7 10 -3 6 1 7 9 4 9 -3
13 -10 10 -15 -3 -5 2 -6 10 -3 9 3 16 1 16 -6 0 -6 5 -8 10 -5 6 3 10 -1 10
-9 0 -8 5 -18 12 -22 6 -4 8 -3 5 3 -11 17 21 24 37 8 10 -10 16 -11 18 -4 2
7 13 13 23 14 50 6 67 17 62 41 -2 13 -1 22 2 19 4 -2 5 12 3 31 -2 18 -8 32
-12 29 -5 -3 -11 -1 -15 5 -3 5 7 22 22 37 15 14 23 23 17 20 -7 -4 -14 0 -18
8 -3 10 1 15 12 15 15 0 15 2 2 10 -13 9 -7 14 12 11 4 0 3 11 -2 25 -9 23 -8
25 7 20 14 -6 14 -4 -3 15 -10 12 -13 19 -6 15 6 -4 12 -3 12 3 0 5 -8 15 -17
20 -16 9 -15 11 7 11 25 1 25 1 3 10 -23 9 -27 19 -23 54 1 13 -2 16 -12 10
-10 -6 -11 -5 -1 7 10 13 7 18 -18 33 -19 11 -28 23 -25 32 4 9 1 12 -5 8 -6
-3 -26 11 -46 32 -19 22 -32 33 -29 27 4 -7 3 -13 -1 -13 -5 0 -15 6 -22 13
-11 10 -13 9 -8 -4 4 -13 1 -15 -14 -12 -10 3 -19 10 -19 15 0 6 -8 2 -17 -9
-10 -10 -15 -14 -11 -8 13 20 -4 26 -19 7 -12 -16 -13 -15 -6 3 6 17 4 18 -8
8 -11 -9 -19 -9 -26 -2 -8 8 -13 7 -18 -2 -6 -8 -4 -10 5 -4 9 6 11 4 5 -5 -6
-10 -12 -7 -27 11 -10 13 -16 17 -13 8 4 -10 0 -19 -9 -22 -9 -4 -15 -3 -15 1
3 20 -2 33 -11 27 -5 -3 -10 -1 -10 6 0 7 -3 10 -6 6 -8 -7 -34 17 -34 32 0 6
-7 11 -16 11 -9 0 -23 8 -30 18 -13 16 -14 16 -8 -3 5 -18 4 -18 -6 -2 -6 9
-8 22 -4 29 4 6 3 8 -3 5 -15 -9 -55 23 -49 39 3 8 1 14 -3 14 -5 0 -12 -6
-14 -12 -5 -12 -11 17 -8 35 1 5 -2 6 -7 3 -15 -9 -52 24 -52 45 0 20 -24 52
-32 44 -3 -3 -5 1 -6 8 -3 39 -22 77 -37 77 -7 0 -16 7 -19 16 -6 15 -4 15 11
3 16 -13 17 -12 4 4 -7 9 -20 17 -27 17 -8 0 -14 5 -14 11 0 5 6 7 13 4 6 -3
4 0 -5 7 -15 11 -15 13 0 25 16 11 15 12 -3 13 -14 0 -16 3 -8 8 10 6 10 12
-2 28 -15 19 -15 19 -9 -1 4 -15 1 -13 -10 5 -8 14 -15 33 -16 43 0 9 -7 17
-16 17 -8 0 -13 4 -10 9 4 5 0 12 -6 14 -10 4 -9 6 1 6 11 1 11 4 0 18 -9 11
-10 14 -2 9 9 -5 11 -2 7 8 -3 9 -14 16 -23 16 -14 0 -14 2 -1 10 11 7 11 10
2 10 -7 0 -10 5 -7 10 3 6 -1 10 -9 10 -9 0 -16 5 -16 11 0 5 6 7 13 3 6 -4 3
3 -8 16 -11 13 -14 20 -7 16 7 -4 12 -1 12 9 0 10 5 13 12 9 7 -5 8 -3 4 5 -5
7 -15 10 -24 6 -12 -4 -12 -1 4 16 10 12 13 19 7 15 -7 -4 -13 -2 -13 3 0 6 5
11 11 11 5 0 7 4 4 10 -3 6 1 7 9 4 9 -3 16 -1 16 6 0 6 5 8 10 5 6 -4 8 -11
5 -16 -10 -15 2 -10 21 9 10 9 22 17 28 17 6 0 10 8 10 18 -1 9 1 17 5 17 3 0
6 13 7 30 1 16 -2 27 -6 25 -4 -2 -5 7 -2 20 2 14 7 23 11 21 4 -3 7 4 7 14 0
15 -3 17 -15 7 -9 -7 -12 -8 -8 -1 10 17 16 105 7 99 -5 -3 -4 11 1 30 6 19 7
40 4 45 -3 6 1 7 10 4 10 -4 15 -2 13 7 -2 7 6 13 17 14 11 0 19 6 18 12 -4
17 28 53 47 53 13 0 13 1 0 10 -13 8 -12 10 3 10 10 0 15 4 12 10 -9 14 13 50
30 50 14 0 21 21 15 45 -1 6 -3 16 -4 23 -3 17 -26 40 -26 25 0 -6 6 -13 13
-16 6 -3 2 -4 -10 -4 -12 1 -19 5 -16 11 3 5 -1 14 -10 21 -20 15 -80 7 -70
-9 3 -6 -3 -3 -14 7 -21 18 -21 18 -26 0 -4 -16 -5 -16 -6 0 0 9 -6 17 -12 17
-6 0 -8 -7 -5 -17 6 -14 4 -14 -14 2 -12 11 -32 20 -46 20 -13 1 -31 10 -40
21 -8 10 -12 13 -9 6 6 -11 3 -12 -14 -3 -11 7 -21 19 -21 27 0 20 -25 45 -35
36 -5 -4 -5 -1 -1 6 6 11 11 11 24 0 9 -7 6 1 -7 20 -13 18 -31 38 -41 45 -15
9 -16 15 -8 30 9 17 8 19 -7 13 -15 -5 -16 -4 -5 9 12 15 4 21 -23 16 -5 -1
-6 3 -2 9 3 5 2 10 -2 10 -5 0 -18 7 -29 15 -16 13 -16 14 -1 9 9 -3 17 -4 17
-1 0 8 -24 13 -47 9z m122 -142 c16 -17 16 -20 3 -15 -9 4 -19 13 -22 21 -7
19 -2 18 19 -6z m150 -150 c3 -6 -1 -7 -9 -4 -18 7 -21 14 -7 14 6 0 13 -4 16
-10z m216 -67 c13 -16 12 -17 -3 -4 -10 7 -18 15 -18 17 0 8 8 3 21 -13z
m-102 -1037 c9 -11 9 -16 -1 -22 -7 -4 -10 -4 -6 1 4 4 3 14 -3 22 -6 7 -9 13
-6 13 2 0 10 -6 16 -14z m-779 -85 c0 -5 -7 -12 -16 -15 -14 -5 -15 -4 -4 9
14 17 20 19 20 6z m-94 -333 c4 -7 3 -8 -4 -4 -7 4 -12 2 -12 -5 0 -7 -3 -10
-6 -6 -6 5 3 27 11 27 2 0 7 -5 11 -12z m-307 -371 c-2 -1 -13 -9 -24 -17 -19
-14 -19 -14 -6 3 7 9 18 17 24 17 6 0 8 -1 6 -3z m1946 -547 c-3 -5 -12 -10
-18 -10 -7 0 -6 4 3 10 19 12 23 12 15 0z m305 -295 c7 -9 8 -15 2 -15 -5 0
-12 7 -16 15 -3 8 -4 15 -2 15 2 0 9 -7 16 -15z m-83 -361 c-3 -3 -12 -4 -19
-1 -8 3 -5 6 6 6 11 1 17 -2 13 -5z m-2806 -585 c4 -7 5 -17 2 -22 -3 -5 4 -6
17 -2 20 6 21 4 15 -17 l-8 -23 22 25 c13 14 20 20 17 14 -4 -8 5 -11 27 -8
17 1 32 3 32 4 0 1 12 3 27 4 15 2 25 -1 22 -5 -5 -9 47 -5 83 6 13 4 20 11
17 16 -9 14 3 10 20 -7 14 -14 17 -14 22 0 5 12 9 12 19 3 10 -9 9 -14 -4 -25
-12 -10 -13 -12 -1 -7 13 6 13 5 0 -7 -8 -8 -21 -20 -28 -28 -11 -13 -12 -12
-7 5 6 17 3 16 -13 -5 -11 -13 -18 -29 -15 -34 3 -5 1 -6 -5 -2 -6 4 -8 14 -5
23 5 11 0 10 -16 -6 -12 -12 -27 -19 -33 -15 -7 4 -8 3 -4 -4 4 -6 14 -8 24
-5 9 3 14 3 10 -1 -10 -11 -58 -15 -64 -4 -3 4 -10 6 -15 2 -5 -3 -6 -11 -2
-17 4 -7 -2 -5 -12 3 -12 10 -16 10 -11 2 6 -9 1 -12 -16 -10 -12 2 -29 7 -36
12 -11 7 -12 4 -3 -12 9 -18 8 -19 -11 -14 -14 3 -19 1 -14 -6 5 -8 1 -10 -10
-5 -10 4 -15 2 -11 -3 3 -6 -3 -15 -14 -22 -10 -7 -19 -9 -18 -5 1 5 1 15 0
23 -1 11 -3 12 -9 3 -6 -9 -11 -6 -21 8 -7 12 -8 18 -2 15 7 -4 8 -1 5 8 -3 9
-10 13 -15 10 -5 -3 -6 3 -2 12 5 14 3 16 -11 11 -9 -4 -15 -3 -13 1 3 4 -1
12 -8 19 -11 10 -15 10 -19 0 -4 -7 -4 -2 -2 10 2 12 1 22 -3 21 -19 -2 -32 3
-27 11 4 5 2 11 -3 13 -17 6 -16 30 2 33 10 2 15 -1 11 -8 -5 -8 -3 -8 6 0 11
10 17 10 29 0 12 -9 13 -9 7 1 -4 6 -4 17 -1 22 9 14 66 5 76 -11z m-461 -673
c0 -2 -7 -7 -16 -10 -8 -3 -12 -2 -9 4 6 10 25 14 25 6z m-240 -75 c0 -5 -7
-12 -16 -15 -14 -5 -15 -4 -4 9 14 17 20 19 20 6z m3904 -496 c-4 -8 -11 -12
-17 -8 -8 5 -7 8 1 11 7 2 9 9 6 14 -4 7 -2 8 4 4 6 -4 9 -13 6 -21z m91 6 c3
-5 2 -12 -3 -15 -5 -3 -9 1 -9 9 0 17 3 19 12 6z m-2864 -204 c-10 -9 -11 -8
-5 6 3 10 9 15 12 12 3 -3 0 -11 -7 -18z m2779 -82 c0 -2 -10 -9 -22 -15 -22
-11 -22 -10 -4 4 21 17 26 19 26 11z m-90 -55 c0 -5 -2 -10 -4 -10 -3 0 -8 5
-11 10 -3 6 -1 10 4 10 6 0 11 -4 11 -10z m-15 -88 c-3 -3 -11 0 -18 7 -9 10
-8 11 6 5 10 -3 15 -9 12 -12z m-607 -107 c-3 -3 -9 2 -12 12 -6 14 -5 15 5 6
7 -7 10 -15 7 -18z"/>
<path d="M1906 2158 c3 -5 10 -6 15 -3 13 9 11 12 -6 12 -8 0 -12 -4 -9 -9z"/>
<path d="M2861 5884 c0 -11 3 -14 6 -6 3 7 2 16 -1 19 -3 4 -6 -2 -5 -13z"/>
<path d="M3507 5259 c7 -7 15 -10 18 -7 3 3 -2 9 -12 12 -14 6 -15 5 -6 -5z"/>
<path d="M3667 4649 c7 -7 15 -10 18 -7 3 3 -2 9 -12 12 -14 6 -15 5 -6 -5z"/>
<path d="M3747 4569 c7 -7 15 -10 18 -7 3 3 -2 9 -12 12 -14 6 -15 5 -6 -5z"/>
<path d="M4256 4023 c-6 -14 -5 -15 5 -6 7 7 10 15 7 18 -3 3 -9 -2 -12 -12z"/>
<path d="M2555 3910 c-4 -6 -11 -7 -17 -4 -7 4 -8 2 -4 -4 7 -12 36 -5 36 9 0
12 -7 11 -15 -1z"/>
<path d="M2326 3723 c-6 -14 -5 -15 5 -6 7 7 10 15 7 18 -3 3 -9 -2 -12 -12z"/>
<path d="M4189 3353 c-13 -16 -12 -17 4 -4 16 13 21 21 13 21 -2 0 -10 -8 -17
-17z"/>
<path d="M4947 2279 c7 -7 15 -10 18 -7 3 3 -2 9 -12 12 -14 6 -15 5 -6 -5z"/>
<path d="M5173 1985 c0 -8 4 -12 9 -9 4 3 8 9 8 15 0 5 -4 9 -8 9 -5 0 -9 -7
-9 -15z"/>
<path d="M805 911 c-3 -5 -2 -12 3 -15 5 -3 9 1 9 9 0 17 -3 19 -12 6z"/>
<path d="M2260 790 c-9 -6 -10 -10 -3 -10 6 0 15 5 18 10 8 12 4 12 -15 0z"/>
<path d="M4470 416 c0 -2 7 -7 16 -10 8 -3 12 -2 9 4 -6 10 -25 14 -25 6z"/>
</g>
</svg>
